<?xml version="1.0" encoding="UTF-8"?>
<svg version="1.1" xmlns="http://www.w3.org/2000/svg" width="981" height="904">
<path d="M0 0 C323.73 0 647.46 0 981 0 C981 298.32 981 596.64 981 904 C657.27 904 333.54 904 0 904 C0 605.68 0 307.36 0 0 Z " fill="#1E1D1E" transform="translate(0,0)"/>
<path d="M0 0 C46.83333333 0 46.83333333 0 54 6 C59.00557209 11.18683236 61.2871318 15.119695 61.3125 22.375 C61.18093068 28.5795322 60.6231059 32.33234028 56.16015625 36.87109375 C50.34706944 42.25117596 50.34706944 42.25117596 46 43 C46 43.66 46 44.32 46 45 C46.969375 45 47.93875 45 48.9375 45 C54.50594287 45.78253067 58.42314661 49.9171189 62 54 C66.16204969 60.77499569 66.15457226 68.53502462 64.53125 76.21875 C61.51082424 84.12938888 55.77838901 88.56842137 48.3671875 92.0546875 C33.38240811 98.03870831 16.13543054 94 0 94 C0 62.98 0 31.96 0 0 Z " fill="#E9E9E8" transform="translate(291,412)"/>
<path d="M0 0 C0.6280957 0.33588135 1.25619141 0.6717627 1.90332031 1.01782227 C2.93634277 1.55354858 2.93634277 1.55354858 3.99023438 2.10009766 C12.10491585 6.38264523 19.92942606 11.16239067 27.75048828 15.95336914 C31.05842542 17.97745846 34.37273124 19.99093834 37.68847656 22.00219727 C38.9064958 22.74112683 40.12451336 23.48005914 41.3425293 24.21899414 C41.95039276 24.58774658 42.55825623 24.95649902 43.18453979 25.33642578 C45.62110456 26.81505283 48.05679958 28.29510926 50.49250793 29.77514648 C60.1156238 35.62205234 69.74413114 41.45614772 79.47167969 47.12817383 C83.22961768 49.32476531 86.97354626 51.54467542 90.71582031 53.76782227 C91.76995117 54.39205078 92.82408203 55.0162793 93.91015625 55.65942383 C96.83192886 57.39304182 99.74386558 59.1424281 102.6512146 60.90011597 C104.36479312 61.93211925 106.08576988 62.95180645 107.80688477 63.97119141 C114.72732661 68.17634096 119.97168157 72.02794625 124.09082031 79.14282227 C125.51783853 85.13629876 125.46637637 89.97012569 122.59082031 95.51782227 C117.42483369 103.78054672 108.87358176 107.89418378 100.71582031 112.76782227 C98.89766538 113.8555652 97.07951912 114.9433225 95.26147461 116.03125 C94.01599666 116.77631124 92.77006037 117.52060677 91.52368164 118.26416016 C86.7945576 121.09436367 82.12610675 124.01349573 77.46582031 126.95532227 C72.20140304 130.27372914 66.88251737 133.37283567 61.38769531 136.29907227 C57.33186506 138.52859299 53.42728574 140.98953661 49.49707031 143.43188477 C42.41861527 147.82129629 35.2636945 152.08601121 28.10595703 156.34448242 C26.58506361 157.250183 25.06568278 158.15843204 23.54833984 159.07006836 C21.65132702 160.20809228 19.74755343 161.33368384 17.84082031 162.45532227 C16.79152344 163.07793945 15.74222656 163.70055664 14.66113281 164.34204102 C11.59436892 165.82661505 9.10389505 166.49193618 5.71582031 166.76782227 C3.84082031 165.64282227 3.84082031 165.64282227 2.71582031 163.76782227 C2.39941406 161.34985352 2.39941406 161.34985352 2.71582031 158.76782227 C4.30566406 157.09985352 4.30566406 157.09985352 6.65332031 155.58032227 C7.58015625 154.97704102 8.50699219 154.37375977 9.46191406 153.75219727 C13.73734254 151.14485313 18.04206235 148.59264719 22.37255859 146.07788086 C28.99162587 142.22768432 35.51431295 138.2302572 42.02832031 134.20532227 C50.65270121 128.87883292 59.29326765 123.58184705 67.96325684 118.32995605 C69.70857053 117.27221597 71.45307435 116.21315423 73.19726562 115.15356445 C73.77189545 114.80448029 74.34652527 114.45539612 74.93856812 114.09573364 C76.09924988 113.3905816 77.25991478 112.68540178 78.42056274 111.98019409 C82.04299053 109.7803005 85.67018462 107.58847684 89.29995728 105.40072632 C91.71836574 103.94079585 94.13271353 102.47424783 96.54614258 101.00610352 C98.23804125 99.97975653 99.93488545 98.96157615 101.63183594 97.94360352 C102.65083984 97.32227539 103.66984375 96.70094727 104.71972656 96.06079102 C105.61506104 95.51962646 106.51039551 94.97846191 107.43286133 94.42089844 C110.56093397 92.15588081 112.43272572 90.14790842 113.21582031 86.33032227 C112.38331604 82.06373785 109.20675661 79.77275158 105.73632812 77.43359375 C103.37458004 75.98703606 100.98942248 74.58990183 98.59082031 73.20532227 C96.77586819 72.13826553 94.96209181 71.06920681 93.14941406 69.99829102 C92.23530762 69.45865723 91.32120117 68.91902344 90.37939453 68.36303711 C86.42056354 65.99209287 82.53781933 63.50799414 78.65332031 61.01782227 C70.40789583 55.75467371 62.01310592 50.75970531 53.58499146 45.79629517 C45.19376256 40.85296841 36.87302074 35.81187235 28.60961914 30.65771484 C21.45867414 26.20581597 14.25197238 21.85026344 7.02832031 17.51782227 C5.93374512 16.86096436 4.83916992 16.20410645 3.71142578 15.52734375 C-3.73280596 10.65664839 -3.73280596 10.65664839 -12.28417969 9.76782227 C-14.9840863 11.56776001 -16.82606619 12.85159526 -18.28417969 15.76782227 C-18.3825825 17.43572165 -18.41759235 19.10752705 -18.42221069 20.77832031 C-18.4303907 22.36838394 -18.4303907 22.36838394 -18.43873596 23.99057007 C-18.43977829 25.15843048 -18.44082062 26.32629089 -18.44189453 27.52954102 C-18.44697525 28.75557037 -18.45205597 29.98159973 -18.45729065 31.24478149 C-18.46801263 33.91414843 -18.47700791 36.58346297 -18.48340988 39.25283813 C-18.49407753 43.47101011 -18.51431773 47.68910154 -18.53652954 51.90722656 C-18.5984996 63.90271326 -18.6525146 75.89819497 -18.68554688 87.89379883 C-18.7038651 94.51688851 -18.732763 101.13984313 -18.77355158 107.7628336 C-18.79466428 111.26952571 -18.81008486 114.77604736 -18.81235886 118.2828064 C-18.81489603 122.19071419 -18.84031102 126.09828656 -18.86767578 130.00610352 C-18.86466965 131.17396393 -18.86166351 132.34182434 -18.85856628 133.54507446 C-18.86965927 134.60511688 -18.88075226 135.6651593 -18.8921814 136.75732422 C-18.89549154 137.68205032 -18.89880169 138.60677643 -18.90221214 139.55952454 C-19.09128608 140.65263191 -19.09128608 140.65263191 -19.28417969 141.76782227 C-22.73663792 144.06946109 -24.23156682 144.11272549 -28.28417969 143.76782227 C-30.84289879 141.20910317 -30.53884148 140.26797713 -30.55160522 136.71504211 C-30.56013519 135.64539719 -30.56866516 134.57575226 -30.57745361 133.47369385 C-30.57654724 132.29498718 -30.57564087 131.11628052 -30.57470703 129.90185547 C-30.58142426 128.66435043 -30.58814148 127.4268454 -30.59506226 126.15184021 C-30.61084178 122.75069589 -30.61741959 119.34979573 -30.61869383 115.94863153 C-30.62059174 113.10844997 -30.62794858 110.26829189 -30.63503802 107.42811936 C-30.65133818 100.72338913 -30.65620575 94.01871261 -30.65478516 87.31396484 C-30.65358539 80.4043267 -30.67465014 73.49500177 -30.70627248 66.58544284 C-30.73246272 60.65072009 -30.74315121 54.71609939 -30.74187434 48.78131932 C-30.74136521 45.23806113 -30.7470195 41.69508077 -30.76823044 38.15188026 C-30.79127051 34.19471767 -30.78207501 30.23798039 -30.77001953 26.28076172 C-30.78125854 25.11217621 -30.79249756 23.9435907 -30.80407715 22.73959351 C-30.74516878 15.12941671 -29.74432962 10.67158116 -24.60839844 4.87719727 C-17.02156466 -1.42403938 -9.44153436 -4.73226878 0 0 Z " fill="#0E89CA" transform="translate(113.2841796875,378.232177734375)"/>
<path d="M0 0 C2.56647894 1.78227704 4.94924463 3.63272933 7 6 C7 6.66 7 7.32 7 8 C7.66 8 8.32 8 9 8 C9 4.7 9 1.4 9 -2 C12.63 -2 16.26 -2 20 -2 C20.09303993 7.08447396 20.16393619 16.16878169 20.20724869 25.25362968 C20.22804578 29.47296967 20.25621744 33.69198158 20.30175781 37.91113281 C20.34549932 41.98955597 20.36919622 46.0676653 20.37950897 50.14630508 C20.38684995 51.69551655 20.40118416 53.24471254 20.42292023 54.79378891 C20.59231523 67.37660935 19.03996513 76.67991161 10.078125 86.08984375 C2.38157432 93.16430481 -6.32668915 94.36064527 -16.375 94.375 C-17.26960938 94.39949219 -18.16421875 94.42398438 -19.0859375 94.44921875 C-25.59679454 94.47760912 -30.29211899 93.08018967 -36 90 C-37.28390625 89.33484375 -37.28390625 89.33484375 -38.59375 88.65625 C-39.53734375 88.08390625 -39.53734375 88.08390625 -40.5 87.5 C-41.47453125 86.92765625 -41.47453125 86.92765625 -42.46875 86.34375 C-44 85 -44 85 -44.93359375 83.109375 C-45 81 -45 81 -43.56640625 78.859375 C-42.90511719 78.16328125 -42.24382812 77.4671875 -41.5625 76.75 C-40.57443359 75.69039062 -40.57443359 75.69039062 -39.56640625 74.609375 C-38.79103516 73.81273437 -38.79103516 73.81273437 -38 73 C-34.11084389 74.82967117 -30.73085759 77.20047816 -27.21875 79.66015625 C-21.16589785 83.31531169 -13.14590945 82.73236125 -6.390625 81.5390625 C-0.9827679 79.99655293 1.93244752 77.87199511 5 73 C8.17059347 66.28580205 8.6401778 59.33292821 9 52 C8.34 52 7.68 52 7 52 C6.67 52.99 6.34 53.98 6 55 C4.07421875 56.53515625 4.07421875 56.53515625 1.6875 58.0625 C0.90761719 58.56910156 0.12773438 59.07570313 -0.67578125 59.59765625 C-1.44277344 60.06042969 -2.20976563 60.52320313 -3 61 C-3.90878906 61.57621094 -3.90878906 61.57621094 -4.8359375 62.1640625 C-10.61530398 64.39652536 -20.28471922 64.13138262 -26.0625 61.75 C-27.5165625 60.88375 -27.5165625 60.88375 -29 60 C-29.99 59.443125 -30.98 58.88625 -32 58.3125 C-38.94055797 52.96248656 -44.06994007 46.67955946 -46 38 C-47.127354 26.56374907 -46.20062963 16.8771782 -38.75 7.6875 C-28.69261423 -2.97289819 -13.46763 -6.96512926 0 0 Z " fill="#F0F0EF" transform="translate(522,444)"/>
<path d="M0 0 C48.85363346 0 48.85363346 0 59.1484375 9.94921875 C64.4508252 15.82211651 64.52500139 21.95410428 64.35546875 29.55078125 C63.62215947 36.66629873 60.63781872 41.67164594 56 47 C47.07514547 53.52694615 38.35594449 53.75887948 27.75 53.375 C22.8825 53.25125 18.015 53.1275 13 53 C13 66.86 13 80.72 13 95 C8.71 95 4.42 95 0 95 C0 63.65 0 32.3 0 0 Z " fill="#ECEBEB" transform="translate(675,411)"/>
<path d="M0 0 C5.80553113 5.13683121 7.98889337 12.93178178 9.4921875 20.3203125 C9.4921875 23.6203125 9.4921875 26.9203125 9.4921875 30.3203125 C-7.3378125 30.3203125 -24.1678125 30.3203125 -41.5078125 30.3203125 C-40.04465102 37.67565754 -40.04465102 37.67565754 -35.7578125 43.4453125 C-34.6440625 43.8784375 -34.6440625 43.8784375 -33.5078125 44.3203125 C-32.7034375 44.8565625 -31.8990625 45.3928125 -31.0703125 45.9453125 C-25.55750237 48.07306378 -20.33333421 48.20529008 -14.5078125 47.3203125 C-11.83973739 46.05953134 -9.71540642 44.65993608 -7.41015625 42.828125 C-5.5078125 41.3203125 -5.5078125 41.3203125 -1.5078125 39.3203125 C0.8021875 41.3003125 3.1121875 43.2803125 5.4921875 45.3203125 C2.45981244 51.38506263 -2.45839994 54.72629534 -8.7578125 57.1328125 C-18.47195608 60.20895797 -28.03340498 60.61292432 -37.5078125 56.3203125 C-45.68045845 51.55954787 -50.62419434 44.87407327 -53.64453125 35.96875 C-55.63856501 27.5414761 -55.9664879 18.07904622 -51.7578125 10.3046875 C-51.3453125 9.64984375 -50.9328125 8.995 -50.5078125 8.3203125 C-50.0953125 7.62421875 -49.6828125 6.928125 -49.2578125 6.2109375 C-44.83665474 -0.47103956 -38.28873393 -4.75791107 -30.6328125 -7.0546875 C-18.88573029 -9.33290951 -9.44163217 -7.26614089 0 0 Z " fill="#F0EFEE" transform="translate(611.5078125,448.6796875)"/>
<path d="M0 0 C4.59073273 4.87765352 6.13107183 10.36627863 6.11352539 16.89355469 C6.11344986 17.83422791 6.11337433 18.77490112 6.11329651 19.74407959 C6.10813522 20.75150208 6.10297394 21.75892456 6.09765625 22.796875 C6.0962413 23.83442932 6.09482635 24.87198364 6.09336853 25.940979 C6.08777447 29.25234876 6.07522303 32.56365071 6.0625 35.875 C6.05748423 38.12109277 6.05292146 40.36718661 6.04882812 42.61328125 C6.03780698 48.11721359 6.02054639 53.6210953 6 59.125 C2.7 59.125 -0.6 59.125 -4 59.125 C-4 56.155 -4 53.185 -4 50.125 C-4.66 50.125 -5.32 50.125 -6 50.125 C-6.185625 50.681875 -6.37125 51.23875 -6.5625 51.8125 C-9.5301212 56.58649933 -14.7451836 59.41908859 -20 61.125 C-27.84641489 61.93120273 -35.57174069 62.19912236 -42 57.125 C-45.67165181 53.59492859 -48.66087869 49.69995598 -49.3359375 44.57421875 C-49.45105615 36.43533 -48.12420369 32.48351896 -42.5 26.4375 C-31.51003896 18.30277394 -17.93648191 19.67605642 -5 20.125 C-5.27180572 18.68542938 -5.55696021 17.24837525 -5.84765625 15.8125 C-6.00500244 15.01199219 -6.16234863 14.21148437 -6.32446289 13.38671875 C-7.33973973 9.98754109 -9.25248318 8.26940337 -12 6.125 C-17.74628094 4.20957302 -24.21425971 4.00691376 -29.87109375 6.27734375 C-31.55489857 7.18054366 -33.21616381 8.12794074 -34.84375 9.12890625 C-37 10.125 -37 10.125 -39.13671875 9.890625 C-41.80663788 8.79355131 -43.24546281 7.39940007 -45 5.125 C-44.89453125 3.15234375 -44.89453125 3.15234375 -44 1.125 C-30.58559094 -8.17771279 -13.75082345 -8.59426466 0 0 Z " fill="#EEEDED" transform="translate(830,446.875)"/>
<path d="M0 0 C4.62 0 9.24 0 14 0 C22.85219656 22.50425081 22.85219656 22.50425081 26.375 31.875 C26.73537354 32.83321655 26.73537354 32.83321655 27.10302734 33.81079102 C28.412786 37.32663072 29.61923803 40.86048566 30.75 44.4375 C31.56058055 48.07025467 31.56058055 48.07025467 34 49 C34.11085938 48.15566406 34.22171875 47.31132812 34.3359375 46.44140625 C35.0566192 42.70657931 36.23302136 39.47699649 37.625 35.9375 C40.53200832 28.43571645 43.09314765 20.84326871 45.55126953 13.18334961 C47.05219392 8.57311693 48.67763905 4.2798797 51 0 C55.29 0 59.58 0 64 0 C63.29246634 2.83013462 62.59015166 5.19395875 61.50390625 7.8515625 C61.04443604 8.98525269 61.04443604 8.98525269 60.57568359 10.1418457 C60.24133301 10.96128662 59.90698242 11.78072754 59.5625 12.625 C56.2481393 20.82235595 53.03567353 29.0547176 49.875 37.3125 C46.74516408 45.48498082 43.57877186 53.63744597 40.296875 61.75 C38.96480932 65.08818869 37.69946367 68.44726353 36.4375 71.8125 C28.72014253 91.92215263 28.72014253 91.92215263 20 96 C16.88517365 96.3565513 13.81731821 96.2838401 10.6875 96.1875 C9.43356445 96.16719727 9.43356445 96.16719727 8.15429688 96.14648438 C6.10258502 96.11131217 4.05120725 96.05751048 2 96 C2 92.04 2 88.08 2 84 C2.96421875 84.05800781 3.9284375 84.11601563 4.921875 84.17578125 C6.18515625 84.22089844 7.4484375 84.26601563 8.75 84.3125 C10.00296875 84.37050781 11.2559375 84.42851563 12.546875 84.48828125 C16.10043161 84.32791563 16.10043161 84.32791563 18.28125 81.8203125 C19.93406526 79.10819291 21.42372723 76.4483713 22.75 73.5625 C23.17796875 72.65628906 23.6059375 71.75007812 24.046875 70.81640625 C25.8644854 65.44551651 25.12737131 61.5301257 22.875 56.4375 C22.41738281 55.38949219 21.95976563 54.34148437 21.48828125 53.26171875 C20.03635966 50.07968587 18.55233552 46.91442636 17.0625 43.75 C14.47969968 38.2201583 12.28964826 32.61678509 10.18652344 26.89404297 C7.50566822 19.60557821 4.71175225 12.36447856 1.1875 5.4375 C0 3 0 3 0 0 Z " fill="#EDECEC" transform="translate(846,442)"/>
<path d="M0 0 C4.46254968 3.89090075 7.6520865 8.4392614 8.24050903 14.46150208 C8.2338472 15.75056709 8.2338472 15.75056709 8.22705078 17.06567383 C8.22689972 18.04631302 8.22674866 19.02695221 8.22659302 20.03730774 C8.21627045 21.0833165 8.20594788 22.12932526 8.1953125 23.20703125 C8.1924826 24.28756271 8.18965271 25.36809418 8.18673706 26.48136902 C8.17556132 29.92519301 8.15046118 33.36875489 8.125 36.8125 C8.11496685 39.15038686 8.10584158 41.48827781 8.09765625 43.82617188 C8.07563046 49.55088191 8.04111821 55.27539655 8 61 C4.04 61 0.08 61 -4 61 C-4.029729 58.98664551 -4.029729 58.98664551 -4.06005859 56.93261719 C-4.13613032 51.95277138 -4.22484558 46.97321717 -4.31738281 41.99365234 C-4.35566602 39.83843747 -4.39052004 37.68315884 -4.421875 35.52783203 C-4.4675395 32.42978124 -4.52553212 29.33216909 -4.5859375 26.234375 C-4.59748871 25.27070007 -4.60903992 24.30702515 -4.62094116 23.31414795 C-4.64081085 22.41351624 -4.66068054 21.51288452 -4.68115234 20.58496094 C-4.69447601 19.79442322 -4.70779968 19.0038855 -4.7215271 18.18939209 C-5.03919969 15.69180668 -5.65020986 14.12212173 -7 12 C-11.80694009 8.60686582 -14.99149116 7.17124016 -21 8 C-25.07181618 9.3345752 -28.73794945 10.86008338 -31.9375 13.75 C-34.87269014 19.96569676 -35.31529758 26.33984835 -35.4140625 33.09375 C-35.43342865 33.92588013 -35.4527948 34.75801025 -35.4727478 35.61535645 C-35.53198326 38.24347042 -35.5787021 40.87162956 -35.625 43.5 C-35.6632315 45.29428873 -35.70228615 47.08856013 -35.7421875 48.8828125 C-35.83763781 53.25506561 -35.92187257 57.62740445 -36 62 C-37.81242052 62.02687279 -39.62495233 62.04633715 -41.4375 62.0625 C-42.44683594 62.07410156 -43.45617187 62.08570313 -44.49609375 62.09765625 C-47 62 -47 62 -48 61 C-48.09405142 59.0056827 -48.11743249 57.00800457 -48.11352539 55.01147461 C-48.11344986 53.73022202 -48.11337433 52.44896942 -48.11329651 51.12889099 C-48.10818909 49.72004152 -48.10297309 48.31119244 -48.09765625 46.90234375 C-48.09579202 45.46887766 -48.09436814 44.03541093 -48.09336853 42.60194397 C-48.08954372 38.82240043 -48.07971377 35.0428951 -48.06866455 31.2633667 C-48.05844963 27.40930702 -48.05387074 23.55524118 -48.04882812 19.70117188 C-48.03809145 12.13409512 -48.02049497 4.56705777 -48 -3 C-44.04 -3 -40.08 -3 -36 -3 C-35.67 -0.36 -35.34 2.28 -35 5 C-34.41992188 4.51789063 -33.83984375 4.03578125 -33.2421875 3.5390625 C-22.86824971 -4.84910502 -11.9996303 -7.07564408 0 0 Z " fill="#F0EFEF" transform="translate(452,445)"/>
<path d="M0 0 C0.62712891 0.33531738 1.25425781 0.67063477 1.90039062 1.01611328 C2.58037109 1.36818848 3.26035156 1.72026367 3.9609375 2.08300781 C18.65670653 9.83102465 32.67336204 18.90317066 46.71289062 27.76611328 C43.61568217 28.64452324 41.8064366 28.76046734 38.71289062 27.76611328 C38.71289062 26.77611328 38.71289062 25.78611328 38.71289062 24.76611328 C37.94976562 24.66298828 37.18664062 24.55986328 36.40039062 24.45361328 C33.50684207 23.71340319 32.54497628 23.05622034 30.71289062 20.76611328 C30.21789062 19.77611328 30.21789062 19.77611328 29.71289062 18.76611328 C27.18555827 18.11056209 27.18555827 18.11056209 24.71289062 17.76611328 C24.71289062 17.10611328 24.71289062 16.44611328 24.71289062 15.76611328 C24.07480469 15.57275391 23.43671875 15.37939453 22.77929688 15.18017578 C21.95300781 14.91978516 21.12671875 14.65939453 20.27539062 14.39111328 C19.45167969 14.13587891 18.62796875 13.88064453 17.77929688 13.61767578 C15.71289062 12.76611328 15.71289062 12.76611328 14.71289062 10.76611328 C12.68825807 10.11398036 12.68825807 10.11398036 10.71289062 9.76611328 C10.71289062 9.10611328 10.71289062 8.44611328 10.71289062 7.76611328 C9.98972656 7.47865234 9.2665625 7.19119141 8.52148438 6.89501953 C6.75850216 6.18639386 4.99989496 5.4666777 3.24804688 4.73095703 C-4.28218193 1.08944994 -4.28218193 1.08944994 -12.16992188 1.53564453 C-15.86350727 3.49082188 -15.86350727 3.49082188 -18.28710938 6.76611328 C-17.55105469 6.65912109 -16.815 6.55212891 -16.05664062 6.44189453 C-7.96668131 5.44801578 -7.96668131 5.44801578 -4.34960938 7.14111328 C-3.66898438 7.67736328 -2.98835938 8.21361328 -2.28710938 8.76611328 C-1.62710938 8.88986328 -0.96710938 9.01361328 -0.28710938 9.14111328 C1.71289062 9.76611328 1.71289062 9.76611328 3.96289062 12.07861328 C7.23487593 15.27623529 10.57324717 16.92741309 14.71289062 18.76611328 C14.71289062 19.42611328 14.71289062 20.08611328 14.71289062 20.76611328 C9.99038796 19.39944963 6.07215915 17.34393639 1.96289062 14.70361328 C-4.60012492 10.35700929 -4.60012492 10.35700929 -12.28710938 9.76611328 C-14.98701599 11.56605103 -16.82899587 12.84988628 -18.28710938 15.76611328 C-18.38551219 17.43401267 -18.42052203 19.10581806 -18.42514038 20.77661133 C-18.43332039 22.36667496 -18.43332039 22.36667496 -18.44166565 23.98886108 C-18.44270798 25.1567215 -18.44375031 26.32458191 -18.44482422 27.52783203 C-18.44990494 28.75386139 -18.45498566 29.97989075 -18.46022034 31.24307251 C-18.47094232 33.91243944 -18.4799376 36.58175399 -18.48633957 39.25112915 C-18.49700722 43.46930113 -18.51724742 47.68739255 -18.53945923 51.90551758 C-18.60142929 63.90100428 -18.65544428 75.89648599 -18.68847656 87.89208984 C-18.70679479 94.51517952 -18.73569268 101.13813415 -18.77648127 107.76112461 C-18.79759397 111.26781673 -18.81301455 114.77433837 -18.81528854 118.28109741 C-18.81782571 122.1890052 -18.8432407 126.09657757 -18.87060547 130.00439453 C-18.86759933 131.17225494 -18.8645932 132.34011536 -18.86149597 133.54336548 C-18.87258896 134.6034079 -18.88368195 135.66345032 -18.89511108 136.75561523 C-18.89842123 137.68034134 -18.90173138 138.60506744 -18.90514183 139.55781555 C-19.09421576 140.65092293 -19.09421576 140.65092293 -19.28710938 141.76611328 C-22.73956761 144.06775211 -24.2344965 144.1110165 -28.28710938 143.76611328 C-30.84582847 141.20739418 -30.54177116 140.26626814 -30.55453491 136.71333313 C-30.56306488 135.6436882 -30.57159485 134.57404327 -30.5803833 133.47198486 C-30.57947693 132.2932782 -30.57857056 131.11457153 -30.57763672 129.90014648 C-30.58435394 128.66264145 -30.59107117 127.42513641 -30.59799194 126.15013123 C-30.61377146 122.74898691 -30.62034928 119.34808675 -30.62162352 115.94692254 C-30.62352142 113.10674098 -30.63087827 110.26658291 -30.63796771 107.42641038 C-30.65426787 100.72168014 -30.65913543 94.01700363 -30.65771484 87.31225586 C-30.65651508 80.40261772 -30.67757983 73.49329279 -30.70920217 66.58373386 C-30.73539241 60.64901111 -30.74608089 54.71439041 -30.74480402 48.77961034 C-30.7442949 45.23635215 -30.74994918 41.69337179 -30.77116013 38.15017128 C-30.7942002 34.19300869 -30.7850047 30.2362714 -30.77294922 26.27905273 C-30.78418823 25.11046722 -30.79542725 23.94188171 -30.80700684 22.73788452 C-30.74809846 15.12770773 -29.7472593 10.66987217 -24.61132812 4.87548828 C-17.02308541 -1.42691856 -9.44251533 -4.73401782 0 0 Z " fill="#283B97" transform="translate(113.287109375,378.23388671875)"/>
<path d="M0 0 C4.57156087 3.18438878 7.32816002 6.1351282 9.046875 11.42578125 C9.91849163 19.02260832 9.94156287 26.03427728 5.68359375 32.5859375 C2.936176 35.67432357 -0.27545513 37.60724251 -3.953125 39.42578125 C-4.943125 39.92078125 -4.943125 39.92078125 -5.953125 40.42578125 C-12.5039074 40.99069118 -18.20630142 40.91894853 -23.953125 37.42578125 C-28.82612765 32.95886216 -31.60138222 28.58274132 -32.16796875 21.88671875 C-32.43204488 14.21794786 -31.57934913 8.37227662 -26.390625 2.55078125 C-25.1840625 1.49890625 -25.1840625 1.49890625 -23.953125 0.42578125 C-23.293125 -0.23421875 -22.633125 -0.89421875 -21.953125 -1.57421875 C-13.44686247 -4.63647326 -7.61722877 -4.66226933 0 0 Z " fill="#151515" transform="translate(520.953125,455.57421875)"/>
<path d="M0 0 C-0.33 1.65 -0.66 3.3 -1 5 C1.64 4.67 4.28 4.34 7 4 C3.87913218 7.44897862 0.62799585 9.51651533 -3.4375 11.75 C-4.70803106 12.4578438 -5.97754293 13.16751969 -7.24609375 13.87890625 C-8.19911377 14.41281982 -8.19911377 14.41281982 -9.17138672 14.95751953 C-11.82231278 16.46879514 -14.41045048 18.07372276 -17 19.6875 C-22.88352196 23.34404783 -28.84017525 26.8656309 -34.8125 30.375 C-41.36699866 34.22961011 -47.88332961 38.12705678 -54.3125 42.1875 C-61.81047614 46.91973494 -69.41178923 51.45812102 -77.09033203 55.89111328 C-78.84844032 56.91199385 -80.59475114 57.95312027 -82.33984375 58.99609375 C-83.30019531 59.55425781 -84.26054687 60.11242187 -85.25 60.6875 C-86.05953125 61.16574219 -86.8690625 61.64398437 -87.703125 62.13671875 C-90.57591561 63.21645808 -92.11240882 62.95445547 -95 62 C-97 60 -97 60 -97.37109375 57.57421875 C-97 55 -97 55 -95.41015625 53.33203125 C-94.63542969 52.83058594 -93.86070313 52.32914063 -93.0625 51.8125 C-92.13566406 51.20921875 -91.20882812 50.6059375 -90.25390625 49.984375 C-85.97847778 47.37703086 -81.67375797 44.82482492 -77.34326172 42.31005859 C-70.72419555 38.4598627 -64.20148051 34.46247792 -57.6875 30.4375 C-46.93593194 23.79640404 -36.14935978 17.21591162 -25.33862305 10.67163086 C-24.23429932 10.00268799 -23.12997559 9.33374512 -21.9921875 8.64453125 C-20.43709473 7.70407959 -20.43709473 7.70407959 -18.85058594 6.74462891 C-15.76161106 4.85410009 -12.71240383 2.90879502 -9.68798828 0.91674805 C-6.22546681 -0.96375067 -3.73462358 -1.20041472 0 0 Z " fill="#1090DA" transform="translate(213,482)"/>
<path d="M0 0 C3.96 0 7.92 0 12 0 C12 33.33 12 66.66 12 101 C8.04 101 4.08 101 0 101 C0 67.67 0 34.34 0 0 Z " fill="#EFEEEE" transform="translate(753,405)"/>
<path d="M0 0 C4.269375 -0.12375 8.53875 -0.2475 12.9375 -0.375 C14.26515381 -0.42962402 15.59280762 -0.48424805 16.96069336 -0.54052734 C24.90309234 -0.65135983 30.11645722 0.47389273 36 6 C38.9907377 10.07827868 39.53062346 13.80787089 39.35546875 18.75390625 C38.6388837 23.28177885 36.4281818 26.5208117 33.25 29.8125 C26.21078282 33.5276424 18.74257093 33.24998722 11 33.125 C7.37 33.08375 3.74 33.0425 0 33 C0 22.11 0 11.22 0 0 Z " fill="#101011" transform="translate(304,462)"/>
<path d="M0 0 C3.96 -0.0825 7.92 -0.165 12 -0.25 C13.84851563 -0.30462402 13.84851563 -0.30462402 15.734375 -0.36035156 C23.5274246 -0.4385849 29.14612155 0.4224953 34.9609375 5.8203125 C37.35293522 10.83811222 36.87753634 16.63520336 36 22 C33.15587927 26.4454324 28.8601895 28.31248245 24 30 C21.22924805 30.22705078 21.22924805 30.22705078 18.26171875 30.1953125 C16.81865356 30.18781982 16.81865356 30.18781982 15.34643555 30.18017578 C14.13898682 30.16196777 12.93153809 30.14375977 11.6875 30.125 C7.830625 30.08375 3.97375 30.0425 0 30 C0 20.1 0 10.2 0 0 Z " fill="#1A191A" transform="translate(689,423)"/>
<path d="M0 0 C4.33125 -0.103125 8.6625 -0.20625 13.125 -0.3125 C14.47996582 -0.35802002 15.83493164 -0.40354004 17.23095703 -0.45043945 C27.16817948 -0.56519653 27.16817948 -0.56519653 30.7421875 2.33203125 C34.45789683 6.72273968 35.46368668 9.0468459 35.30859375 14.6484375 C34.7778519 18.69282475 33.53127337 20.75477773 31 24 C24.70523152 27.68620274 18.70346887 27.35149895 11.5625 27.1875 C5.8390625 27.0946875 5.8390625 27.0946875 0 27 C0 18.09 0 9.18 0 0 Z " fill="#111011" transform="translate(304,423)"/>
<path d="M0 0 C3.96 0 7.92 0 12 0 C12 21.45 12 42.9 12 65 C8.04 65 4.08 65 0 65 C0 43.55 0 22.1 0 0 Z " fill="#EFEEEE" transform="translate(373,442)"/>
<path d="M0 0 C2.7824349 1.39121745 3.55210065 3.30164212 5 6 C5 6.66 5 7.32 5 8 C5.66 8.66 6.32 9.32 7 10 C6.41210693 10.34667725 5.82421387 10.69335449 5.21850586 11.05053711 C2.4578288 12.67894623 -0.30239492 14.30812156 -3.0625 15.9375 C-4.06152344 16.52708496 -5.06054688 17.11666992 -6.08984375 17.72412109 C-13.05475442 21.83883455 -19.99344512 25.99372238 -26.90625 30.1953125 C-35.23255814 35.05232558 -35.23255814 35.05232558 -38.75 34.8125 C-41 34 -41 34 -43 32 C-43.37109375 29.57421875 -43.37109375 29.57421875 -43 27 C-41.41015625 25.33203125 -41.41015625 25.33203125 -39.0625 23.8125 C-38.14855469 23.21695313 -37.23460938 22.62140625 -36.29296875 22.0078125 C-31.79092567 19.26279453 -27.26154312 16.56805634 -22.69726562 13.92773438 C-18.88927173 11.72239751 -15.12685083 9.47048697 -11.41796875 7.1015625 C-10.68658691 6.63468018 -9.95520508 6.16779785 -9.20166016 5.68676758 C-7.79722742 4.78451331 -6.3969914 3.87568607 -5.00146484 2.9597168 C-3.37098639 1.91364297 -1.68937944 0.94801242 0 0 Z " fill="#1B6EB9" transform="translate(159,510)"/>
<path d="M0 0 C1.30517578 0.02030273 1.30517578 0.02030273 2.63671875 0.04101562 C4.75808627 0.07598322 6.87912974 0.1297747 9 0.1875 C8.84055343 7.26112954 7.91560124 12.85407266 3 18.1875 C-2.12653725 22.38841247 -7.82136459 22.8520041 -14.28125 22.65625 C-18.37075033 21.95116374 -19.64341324 20.51922611 -22 17.1875 C-22.33 16.8575 -22.66 16.5275 -23 16.1875 C-23.70136986 9.17380137 -23.70136986 9.17380137 -21 5.375 C-14.24058336 0.4462587 -8.10255744 -0.24270333 0 0 Z " fill="#191818" transform="translate(816,475.8125)"/>
<path d="M0 0 C3.95478251 2.91900614 7.41112181 6.50974362 9.625 10.9375 C9.625 12.9175 9.625 14.8975 9.625 16.9375 C-2.915 16.9375 -15.455 16.9375 -28.375 16.9375 C-27.20118815 8.72081702 -25.65367538 5.54705795 -19.3125 0.5 C-13.40181984 -2.50718815 -6.15414093 -1.93741474 0 0 Z " fill="#141314" transform="translate(598.375,452.0625)"/>
<path d="M0 0 C1.68762851 1.6454378 3.3540349 3.31288577 5 5 C7.59186535 6.5074639 10.26099372 7.78341905 13 9 C13 9.66 13 10.32 13 11 C8.27749733 9.63333635 4.35926853 7.57782311 0.25 4.9375 C-6.31301554 0.59089601 -6.31301554 0.59089601 -14 0 C-16.69990662 1.79993774 -18.5418865 3.083773 -20 6 C-20.1047375 7.67220548 -20.14656024 9.34851451 -20.15821838 11.0239563 C-20.1680072 12.08688904 -20.17779602 13.14982178 -20.18788147 14.2449646 C-20.19363693 15.4159671 -20.1993924 16.5869696 -20.20532227 17.79345703 C-20.21522186 19.02269897 -20.22512146 20.25194092 -20.23532104 21.51843262 C-20.26154395 24.89423445 -20.28339145 28.27001218 -20.30332303 31.64585352 C-20.32516664 35.17195863 -20.35256326 38.69802041 -20.37937927 42.22409058 C-20.42932818 48.90345171 -20.47425883 55.58283687 -20.51740164 62.26224506 C-20.56675525 69.86556106 -20.62168032 77.46883359 -20.67708123 85.07210755 C-20.790935 100.71469821 -20.89776663 116.35732882 -21 132 C-21.33 132 -21.66 132 -22 132 C-22.33 113.52 -22.66 95.04 -23 76 C-23.33 76 -23.66 76 -24 76 C-24.18879219 35.22960135 -24.18879219 35.22960135 -23.6875 18.3125 C-23.66502197 17.24797607 -23.64254395 16.18345215 -23.61938477 15.08666992 C-23.38654515 8.65638935 -22.92713649 2.83271273 -18.0625 -1.875 C-11.87753717 -5.24861609 -6.03337431 -2.94991943 0 0 Z " fill="#263A79" transform="translate(115,388)"/>
<path d="M0 0 C-0.33 1.65 -0.66 3.3 -1 5 C1.64 4.67 4.28 4.34 7 4 C3.78223308 7.59680213 0.12770309 9.83627017 -4.0625 12.125 C-9.11116404 14.92752587 -9.11116404 14.92752587 -14 18 C-16.04296875 18.1953125 -16.04296875 18.1953125 -18.1875 18.125 C-19.445625 18.08375 -20.70375 18.0425 -22 18 C-21.67 16.68 -21.34 15.36 -21 14 C-21.99 14.66 -22.98 15.32 -24 16 C-24.99 16 -25.98 16 -27 16 C-27 15.01 -27 14.02 -27 13 C-25.02 12.67 -23.04 12.34 -21 12 C-21 10.68 -21 9.36 -21 8 C-18.92045138 6.38023597 -17.01782612 5.1066663 -14.75 3.8125 C-13.87021484 3.27979492 -13.87021484 3.27979492 -12.97265625 2.73632812 C-8.33450514 -0.0100827 -5.23120502 -1.68145876 0 0 Z " fill="#0B9CE6" transform="translate(213,482)"/>
<path d="M0 0 C3.97245401 0.70936679 5.67231707 1.79731707 8.5 4.625 C9.94430855 7.51361709 9.87688506 9.42147701 9.5 12.625 C7.45699788 15.65655153 5.94614806 17.30592107 2.3046875 18.109375 C-1.82029054 18.3544232 -3.8199393 18.18895277 -7.0625 15.5 C-8.77720985 12.0705803 -9.19445123 10.40590113 -8.5 6.625 C-6.00929995 2.549309 -4.77027249 0.85183437 0 0 Z " fill="#ECEBEA" transform="translate(378.5,410.375)"/>
<path d="M0 0 C0.33 0 0.66 0 1 0 C1 21.78 1 43.56 1 66 C1.66 66 2.32 66 3 66 C2.835 67.134375 2.67 68.26875 2.5 69.4375 C2.00672103 73.29466747 1.95075628 77.03878079 2.0625 80.921875 C1.99751008 83.0827897 1.59730791 84.92808818 1 87 C1.66 87 2.32 87 3 87 C3.1799928 92.21979128 2.97094808 96.07262981 1 101 C1.66 101 2.32 101 3 101 C2.835 101.680625 2.67 102.36125 2.5 103.0625 C1.73076134 107.58177712 1.54320802 111.62962405 3 116 C2.0625 119.1875 2.0625 119.1875 1 122 C0.67 122 0.34 122 0 122 C0 81.74 0 41.48 0 0 Z " fill="#0F121D" transform="translate(94,398)"/>
<path d="M0 0 C0.66 0.33 1.32 0.66 2 1 C0 3 -2 5 -4 7 C-3.34 7.66 -2.68 8.32 -2 9 C-2 9.99 -2 10.98 -2 12 C-1.34 12.66 -0.68 13.32 0 14 C-1.57347176 15.035969 -3.15921546 16.05331732 -4.75 17.0625 C-5.63171875 17.63097656 -6.5134375 18.19945312 -7.421875 18.78515625 C-10 20 -10 20 -12.328125 19.68359375 C-13.15570313 19.34521484 -13.15570313 19.34521484 -14 19 C-14.33 17.35 -14.66 15.7 -15 14 C-15.66 14 -16.32 14 -17 14 C-16.09466873 10.25885168 -14.72754461 8.55494088 -11.59375 6.5078125 C-10.2377521 5.69897165 -8.87276779 4.90504002 -7.5 4.125 C-6.46552734 3.50238281 -6.46552734 3.50238281 -5.41015625 2.8671875 C-3.64831913 1.83687339 -1.82718516 0.90940179 0 0 Z " fill="#1683CE" transform="translate(177,499)"/>
<path d="M0 0 C0.33 0.66 0.66 1.32 1 2 C0.0625 4.125 0.0625 4.125 -1 6 C-1.66 6 -2.32 6 -3 6 C-3.33 48.9 -3.66 91.8 -4 136 C-4.33 136 -4.66 136 -5 136 C-5.09352025 119.43180561 -5.16401675 102.86369709 -5.20724869 86.29530239 C-5.22785729 78.60197046 -5.25594511 70.90880271 -5.30175781 63.21557617 C-5.34167798 56.50866222 -5.36744519 49.80186719 -5.37635398 43.09483773 C-5.38156004 39.54480485 -5.39376002 35.99511216 -5.42292023 32.44518852 C-5.45524007 28.47828766 -5.45595607 24.51171693 -5.45410156 20.54467773 C-5.46848267 19.37295013 -5.48286377 18.20122253 -5.49768066 16.99398804 C-5.46340147 10.21979854 -5.02380143 5.02380143 0 0 Z " fill="#2B377C" transform="translate(88,384)"/>
<path d="M0 0 C6.916378 -0.56268838 10.81204261 0.96373863 16.6875 4.5 C17.47495605 4.95632813 18.26241211 5.41265625 19.07373047 5.8828125 C21.39468827 7.2357991 23.69939748 8.61274337 26 10 C26.60569824 10.36222656 27.21139648 10.72445313 27.83544922 11.09765625 C31.58862361 13.34889875 35.29688544 15.66760352 39 18 C40.45144336 18.90685777 41.90329023 19.81306993 43.35546875 20.71875 C47.23954539 23.14175055 51.12048613 25.5697012 55 28 C51.90279155 28.87840996 50.09354597 28.99435406 47 28 C47 27.01 47 26.02 47 25 C46.236875 24.896875 45.47375 24.79375 44.6875 24.6875 C41.79395144 23.9472899 40.83208565 23.29010706 39 21 C38.505 20.01 38.505 20.01 38 19 C35.47266765 18.34444881 35.47266765 18.34444881 33 18 C33 17.34 33 16.68 33 16 C32.36191406 15.80664062 31.72382813 15.61328125 31.06640625 15.4140625 C30.24011719 15.15367187 29.41382813 14.89328125 28.5625 14.625 C27.73878906 14.36976563 26.91507813 14.11453125 26.06640625 13.8515625 C24 13 24 13 23 11 C20.97536745 10.34786708 20.97536745 10.34786708 19 10 C19 9.34 19 8.68 19 8 C16.49045054 6.99438447 13.97979867 5.99203152 11.46484375 5 C10.63082031 4.67 9.79679687 4.34 8.9375 4 C8.10089844 3.67 7.26429687 3.34 6.40234375 3 C4.21158764 2.08807551 2.10680717 1.08989563 0 0 Z " fill="#2C5D99" transform="translate(105,378)"/>
<path d="M0 0 C0.66 0.66 1.32 1.32 2 2 C1.40832031 2.10957031 0.81664063 2.21914063 0.20703125 2.33203125 C-4.37925799 3.25228178 -8.18214516 4.13660887 -12 7 C-12.33 7.66 -12.66 8.32 -13 9 C-12.34 9.33 -11.68 9.66 -11 10 C-12.98 10.99 -12.98 10.99 -15 12 C-15 12.66 -15 13.32 -15 14 C-17.475 13.01 -17.475 13.01 -20 12 C-19.40366557 8.79470243 -18.76582486 6.62523066 -16.19140625 4.5234375 C-10.70216043 1.07880984 -6.60985487 -0.36053754 0 0 Z " fill="#284396" transform="translate(108,376)"/>
<path d="M0 0 C-0.33 1.65 -0.66 3.3 -1 5 C1.64 4.67 4.28 4.34 7 4 C4.52301296 6.65391468 2.46588248 8.81169744 -1 10 C-3.33203812 10.0777346 -5.66839059 10.08967728 -8 10 C-8 9.01 -8 8.02 -8 7 C-8.66 6.34 -9.32 5.68 -10 5 C-9.67 4.01 -9.34 3.02 -9 2 C-8.01 2 -7.02 2 -6 2 C-6 1.34 -6 0.68 -6 0 C-3.50907189 -1.24546405 -2.58919267 -0.7767578 0 0 Z " fill="#07A7F2" transform="translate(213,482)"/>
<path d="M0 0 C3.4375 0.1875 3.4375 0.1875 4.4375 1.1875 C4.5625 4.6875 4.5625 4.6875 4.4375 8.1875 C3.4375 9.1875 3.4375 9.1875 0 9.375 C-3.5625 9.1875 -3.5625 9.1875 -5.5625 7.1875 C-5.8125 4.6875 -5.8125 4.6875 -5.5625 2.1875 C-3.5625 0.1875 -3.5625 0.1875 0 0 Z " fill="#254A95" transform="translate(99.5625,542.8125)"/>
<path d="M0 0 C0.66 0 1.32 0 2 0 C2 0.66 2 1.32 2 2 C2.66 2.33 3.32 2.66 4 3 C5.01187003 6.96964397 5.25434824 9.31727578 3.8125 13.1875 C2.08265205 15.87174682 0.36149926 17.86703293 -2 20 C-2.66 20.66 -3.32 21.32 -4 22 C-4.99 22 -5.98 22 -7 22 C-7.33 21.34 -7.66 20.68 -8 20 C-4.66666667 16.66666667 -1.33333333 13.33333333 2 10 C2.32049797 6.15402433 1.59555725 3.49028148 0 0 Z M-10 22 C-9.34 22 -8.68 22 -8 22 C-8.33 22.66 -8.66 23.32 -9 24 C-9.33 23.34 -9.66 22.68 -10 22 Z " fill="#0FA8EC" transform="translate(224,457)"/>
<path d="M0 0 C4.57589291 0.56013755 7.98076192 2.5239749 11.8125 4.9375 C12.40998047 5.29779297 13.00746094 5.65808594 13.62304688 6.02929688 C15.12129015 6.95906384 16.56628564 7.97351929 18 9 C18 9.66 18 10.32 18 11 C16.3125 11.8125 16.3125 11.8125 14 12 C12.33333333 10.33333333 10.66666667 8.66666667 9 7 C6.07992409 5.45639085 3.07566225 4.19944127 0 3 C0 2.01 0 1.02 0 0 Z " fill="#10171B" transform="translate(175,430)"/>
<path d="M0 0 C0 0.66 0 1.32 0 2 C-0.99 2 -1.98 2 -3 2 C-3 2.66 -3 3.32 -3 4 C-3.99 4.495 -3.99 4.495 -5 5 C-6.13350534 7.01669827 -6.13350534 7.01669827 -7 9 C-7.66 8.67 -8.32 8.34 -9 8 C-9.7425 8.45375 -10.485 8.9075 -11.25 9.375 C-14.23755784 11.14037509 -16.58148917 11.60249874 -20 12 C-16.7106702 8.3304964 -13.12557223 6.11629795 -8.875 3.75 C-8.24207031 3.38648438 -7.60914063 3.02296875 -6.95703125 2.6484375 C-2.2675047 0 -2.2675047 0 0 0 Z " fill="#0C1B31" transform="translate(221,487)"/>
<path d="M0 0 C5.43683334 1.49212776 9.69063815 4.1009183 14.375 7.125 C15.47908203 7.82689453 15.47908203 7.82689453 16.60546875 8.54296875 C18.40730078 9.68958913 20.20416431 10.84401076 22 12 C18.90279155 12.87840996 17.09354597 12.99435406 14 12 C14 11.01 14 10.02 14 9 C13.236875 8.896875 12.47375 8.79375 11.6875 8.6875 C8.79395144 7.9472899 7.83208565 7.29010706 6 5 C5.67 4.34 5.34 3.68 5 3 C2.47266765 2.34444881 2.47266765 2.34444881 0 2 C0 1.34 0 0.68 0 0 Z " fill="#2472A9" transform="translate(138,394)"/>
<path d="M0 0 C0.66 0.66 1.32 1.32 2 2 C1.38511719 2.12117188 0.77023438 2.24234375 0.13671875 2.3671875 C-0.67152344 2.53476562 -1.47976562 2.70234375 -2.3125 2.875 C-3.11300781 3.03742188 -3.91351563 3.19984375 -4.73828125 3.3671875 C-7.25301118 3.94478999 -7.25301118 3.94478999 -10 6 C-13.1875 6.125 -13.1875 6.125 -16 6 C-16 5.34 -16 4.68 -16 4 C-10.58648931 1.25028028 -6.22926403 -0.76276702 0 0 Z " fill="#334C8D" transform="translate(108,376)"/>
<path d="M0 0 C0.33 0 0.66 0 1 0 C1.1546875 1.175625 1.1546875 1.175625 1.3125 2.375 C1.77595022 5.33045181 1.77595022 5.33045181 5 7 C6.134375 6.38125 7.26875 5.7625 8.4375 5.125 C9.39462891 4.60292969 9.39462891 4.60292969 10.37109375 4.0703125 C12.16618315 3.08589976 12.16618315 3.08589976 13 1 C14.32 1.66 15.64 2.32 17 3 C15.28133783 4.0384211 13.54955402 5.05514635 11.8125 6.0625 C10.84957031 6.63097656 9.88664062 7.19945312 8.89453125 7.78515625 C5.63575709 9.15287388 4.28864787 9.17573421 1 8 C-1 6 -1 6 -1.1875 3.4375 C-1 1 -1 1 0 0 Z " fill="#22599E" transform="translate(117,536)"/>
<path d="M0 0 C0.33 0 0.66 0 1 0 C1.66 1.98 2.32 3.96 3 6 C5.31 6 7.62 6 10 6 C10.66 4.02 11.32 2.04 12 0 C12.66 0.33 13.32 0.66 14 1 C13.37128155 4.07373463 12.87574371 6.33257408 10.30859375 8.2890625 C8.57619657 9.26200476 6.79021043 10.13804683 5 11 C3 9 1 7 -1 5 C-0.625 2.375 -0.625 2.375 0 0 Z " fill="#0C0F1F" transform="translate(93,545)"/>
<path d="M0 0 C-1.75 2.0625 -1.75 2.0625 -4 4 C-6.25 3.75 -6.25 3.75 -8 3 C-8.33 4.65 -8.66 6.3 -9 8 C-11.97 7.505 -11.97 7.505 -15 7 C-12.86147591 4.73489661 -10.67088393 2.95220832 -8.0625 1.25 C-7.39347656 0.80140625 -6.72445312 0.3528125 -6.03515625 -0.109375 C-3.57208067 -1.18726604 -2.47819942 -0.90922753 0 0 Z " fill="#0C192D" transform="translate(181,513)"/>
<path d="M0 0 C1.69752187 0.25245197 3.38471545 0.57645775 5.0625 0.9375 C5.98160156 1.13214844 6.90070312 1.32679688 7.84765625 1.52734375 C8.91306641 1.76130859 8.91306641 1.76130859 10 2 C10 2.33 10 2.66 10 3 C1.09 3 -7.82 3 -17 3 C-17 2.67 -17 2.34 -17 2 C-15.85660156 1.93941406 -14.71320312 1.87882812 -13.53515625 1.81640625 C-12.04425695 1.73201572 -10.55337225 1.64736698 -9.0625 1.5625 C-8.30775391 1.52318359 -7.55300781 1.48386719 -6.77539062 1.44335938 C-3.08055813 1.55961976 -3.08055813 1.55961976 0 0 Z " fill="#111010" transform="translate(694,407)"/>
<path d="M0 0 C0.99 0.33 1.98 0.66 3 1 C3.2519555 4.02346601 3.20421041 5.6402007 1.6875 8.3125 C1.130625 8.869375 0.57375 9.42625 0 10 C-0.99 10 -1.98 10 -3 10 C-3 8.68 -3 7.36 -3 6 C-2.34 6 -1.68 6 -1 6 C-0.67 4.02 -0.34 2.04 0 0 Z " fill="#0D1924" transform="translate(224,461)"/>
<path d="M0 0 C4.46182436 1.31074365 7.99618757 3.07066011 11.875 5.625 C12.84179688 6.25664062 13.80859375 6.88828125 14.8046875 7.5390625 C15.52914062 8.02117187 16.25359375 8.50328125 17 9 C16.67 9.99 16.34 10.98 16 12 C15.34773437 11.52949219 14.69546875 11.05898438 14.0234375 10.57421875 C9.47724667 7.33556068 5.1014346 4.28222074 0 2 C0 1.34 0 0.68 0 0 Z " fill="#10AAE4" transform="translate(210,437)"/>
<path d="M0 0 C4.30764815 1.56641751 8.06171464 3.68336156 12 6 C11.67 6.99 11.34 7.98 11 9 C7.37 7.02 3.74 5.04 0 3 C0 2.01 0 1.02 0 0 Z " fill="#121314" transform="translate(158,419)"/>
<path d="M0 0 C5.51631498 0.46676511 8.92721846 2.53076582 13.375 5.5625 C14.01566406 5.98724609 14.65632813 6.41199219 15.31640625 6.84960938 C16.8837215 7.89058742 18.44273501 8.94404634 20 10 C18.68 10.33 17.36 10.66 16 11 C15.67 10.34 15.34 9.68 15 9 C10.14747548 6.02906662 5.10460504 3.50752528 0 1 C0 0.67 0 0.34 0 0 Z " fill="#0D141E" transform="translate(105,388)"/>
<path d="M0 0 C4.51478398 0.53115106 7.34666857 2.36620292 11 5 C10.01 6.485 10.01 6.485 9 8 C6.03 6.35 3.06 4.7 0 3 C0 2.01 0 1.02 0 0 Z " fill="#131314" transform="translate(195,442)"/>
<path d="M0 0 C-0.5 2.3125 -0.5 2.3125 -2 5 C-4.5690412 6.34219295 -7.21813439 7.20425705 -10 8 C-10.66 7.34 -11.32 6.68 -12 6 C-10.37829621 4.99466333 -8.75252763 3.99588093 -7.125 3 C-5.76761719 2.1646875 -5.76761719 2.1646875 -4.3828125 1.3125 C-2 0 -2 0 0 0 Z " fill="#2358A1" transform="translate(130,529)"/>
<path d="M0 0 C-1.43963639 3.35915158 -3.12416589 5.71624938 -6 8 C-8.25 7.75 -8.25 7.75 -10 7 C-8.60449526 2.81348579 -4.64858615 0 0 0 Z " fill="#0C172A" transform="translate(196,502)"/>
<path d="M0 0 C3.95820859 0.56545837 6.6659053 1.80902348 10 4 C9.67 4.99 9.34 5.98 9 7 C6 7 6 7 4.5 5.625 C4.005 5.08875 3.51 4.5525 3 4 C2.01 3.34 1.02 2.68 0 2 C0 1.34 0 0.68 0 0 Z " fill="#111114" transform="translate(147,413)"/>
<path d="M0 0 C3.40312738 1.05875074 6.01353231 2.00902154 9 4 C9 4.66 9 5.32 9 6 C7.68 6.33 6.36 6.66 5 7 C4.67 6.34 4.34 5.68 4 5 C1.98330173 3.86649466 1.98330173 3.86649466 0 3 C0 2.01 0 1.02 0 0 Z " fill="#101315" transform="translate(130,402)"/>
<path d="M0 0 C0.66 0.33 1.32 0.66 2 1 C-2.05387741 5.81397943 -5.0217942 6.88541926 -11 8 C-8.83385197 5.69125289 -6.60793392 3.94709819 -3.9375 2.25 C-2.89916016 1.57710937 -2.89916016 1.57710937 -1.83984375 0.890625 C-1.23269531 0.59671875 -0.62554687 0.3028125 0 0 Z " fill="#276AAA" transform="translate(154,513)"/>
<path d="M0 0 C0.66 0.33 1.32 0.66 2 1 C-2.05387741 5.81397943 -5.0217942 6.88541926 -11 8 C-8.83385197 5.69125289 -6.60793392 3.94709819 -3.9375 2.25 C-2.89916016 1.57710938 -2.89916016 1.57710938 -1.83984375 0.890625 C-1.23269531 0.59671875 -0.62554687 0.3028125 0 0 Z " fill="#1F7BBC" transform="translate(177,499)"/>
<path d="M0 0 C0 0.99 0 1.98 0 3 C-2.1875 4.60546875 -2.1875 4.60546875 -5 6.1875 C-5.928125 6.71730469 -6.85625 7.24710938 -7.8125 7.79296875 C-8.534375 8.19128906 -9.25625 8.58960938 -10 9 C-10.33 8.34 -10.66 7.68 -11 7 C-10.360625 6.896875 -9.72125 6.79375 -9.0625 6.6875 C-8.381875 6.460625 -7.70125 6.23375 -7 6 C-6.67 5.01 -6.34 4.02 -6 3 C-5.34 3 -4.68 3 -4 3 C-4 2.34 -4 1.68 -4 1 C-2 0 -2 0 0 0 Z " fill="#12151E" transform="translate(164,505)"/>
<path d="M0 0 C1.32 0 2.64 0 4 0 C4 1.98 4 3.96 4 6 C2.35 5.67 0.7 5.34 -1 5 C-0.67 3.35 -0.34 1.7 0 0 Z " fill="#0B47BA" transform="translate(98,544)"/>
<path d="M0 0 C0 0.66 0 1.32 0 2 C-0.99 2.66 -1.98 3.32 -3 4 C-2.01 5.485 -2.01 5.485 -1 7 C-2.32 7 -3.64 7 -5 7 C-5 6.34 -5 5.68 -5 5 C-6.65 5.33 -8.3 5.66 -10 6 C-7.35570758 3.077361 -4.105808 0 0 0 Z " fill="#148DCF" transform="translate(207,482)"/>
<path d="M0 0 C0.33 0 0.66 0 1 0 C1 4.95 1 9.9 1 15 C0.01 14.67 -0.98 14.34 -2 14 C-2 12.35 -2 10.7 -2 9 C-1.34 9 -0.68 9 0 9 C0 6.03 0 3.06 0 0 Z " fill="#090809" transform="translate(447,492)"/>
<path d="M0 0 C0 0.99 0 1.98 0 3 C-1.98 3.33 -3.96 3.66 -6 4 C-6.33 4.99 -6.66 5.98 -7 7 C-8.32 6.67 -9.64 6.34 -11 6 C-9.54550599 4.9944239 -8.08627557 3.99569565 -6.625 3 C-5.40683594 2.1646875 -5.40683594 2.1646875 -4.1640625 1.3125 C-2 0 -2 0 0 0 Z " fill="#1A86C5" transform="translate(192,491)"/>
<path d="M0 0 C0.99 0.33 1.98 0.66 3 1 C1.55746343 4.36591866 -0.33264727 6.51047079 -3 9 C-3.66 8.67 -4.32 8.34 -5 8 C-4.54625 7.4225 -4.0925 6.845 -3.625 6.25 C-2.15886484 4.2199667 -1.05142216 2.26460157 0 0 Z " fill="#0B1F2E" transform="translate(236,471)"/>
<path d="M0 0 C0.33 0 0.66 0 1 0 C1.33 2.31 1.66 4.62 2 7 C2.99 6.01 3.98 5.02 5 4 C5.66 4.33 6.32 4.66 7 5 C5.1875 7.5 5.1875 7.5 3 10 C2.01 10 1.02 10 0 10 C0 6.7 0 3.4 0 0 Z " fill="#CFCECE" transform="translate(415,443)"/>
<path d="M0 0 C0.99 0.33 1.98 0.66 3 1 C2.3125 2.9375 2.3125 2.9375 1 5 C-1.79597286 5.86029934 -4.07171074 6 -7 6 C-6.34 5.01 -5.68 4.02 -5 3 C-3.68 3 -2.36 3 -1 3 C-0.67 2.01 -0.34 1.02 0 0 Z " fill="#120D0B" transform="translate(226,484)"/>
<path d="M0 0 C2.375 0.25 2.375 0.25 5 1 C6.3125 3.0625 6.3125 3.0625 7 5 C3.89448334 5 2.64738916 4.4606285 0 3 C0 2.01 0 1.02 0 0 Z " fill="#14130F" transform="translate(213,453)"/>
<path d="M0 0 C0.33 0.66 0.66 1.32 1 2 C1.804375 2.12375 2.60875 2.2475 3.4375 2.375 C6 3 6 3 7.3125 5.0625 C7.6528125 6.0215625 7.6528125 6.0215625 8 7 C4.9168649 5.80100302 1.93720508 4.52299523 -1 3 C-0.67 2.01 -0.34 1.02 0 0 Z " fill="#151F32" transform="translate(206,431)"/>
<path d="M0 0 C2.375 0.25 2.375 0.25 5 1 C6.3125 3.0625 6.3125 3.0625 7 5 C2.25 4.125 2.25 4.125 0 3 C0 2.01 0 1.02 0 0 Z " fill="#12100E" transform="translate(175,430)"/>
<path d="M0 0 C2.97 0.495 2.97 0.495 6 1 C6 1.66 6 2.32 6 3 C6.99 3 7.98 3 9 3 C9.66 4.32 10.32 5.64 11 7 C6.89188572 5.55007731 3.53144334 3.54592427 0 1 C0 0.67 0 0.34 0 0 Z " fill="#186495" transform="translate(154,415)"/>
<path d="M0 0 C0.598125 0.20625 1.19625 0.4125 1.8125 0.625 C0.8225 1.945 -0.1675 3.265 -1.1875 4.625 C-2.5075 4.295 -3.8275 3.965 -5.1875 3.625 C-5.1875 2.965 -5.1875 2.305 -5.1875 1.625 C-2.1875 -0.375 -2.1875 -0.375 0 0 Z " fill="#0D1019" transform="translate(136.1875,538.375)"/>
<path d="M0 0 C-2 3 -2 3 -4.625 3.6875 C-5.800625 3.8421875 -5.800625 3.8421875 -7 4 C-6.625 2.0625 -6.625 2.0625 -6 0 C-3.50907189 -1.24546405 -2.58919267 -0.7767578 0 0 Z " fill="#0D111D" transform="translate(155,529)"/>
<path d="M0 0 C0 0.66 0 1.32 0 2 C-3.07115285 4.95303159 -5.8333396 5.52651586 -10 6 C-4.4 0 -4.4 0 0 0 Z " fill="#0A2542" transform="translate(211,493)"/>
<path d="M0 0 C0.66 0.33 1.32 0.66 2 1 C1.67 1.66 1.34 2.32 1 3 C0.34 3 -0.32 3 -1 3 C-1 3.66 -1 4.32 -1 5 C-3.31 5.33 -5.62 5.66 -8 6 C-5.63404067 3.38499232 -3.13950774 1.61000397 0 0 Z " fill="#1990D4" transform="translate(215,476)"/>
<path d="M0 0 C0.66 0.33 1.32 0.66 2 1 C0.9024777 3.99324263 0.32317108 4.84610901 -2.625 6.25 C-3.40875 6.4975 -4.1925 6.745 -5 7 C-5 6.01 -5 5.02 -5 4 C-4.01 4 -3.02 4 -2 4 C-2 3.01 -2 2.02 -2 1 C-1.34 0.67 -0.68 0.34 0 0 Z " fill="#13161F" transform="translate(217,471)"/>
<path d="M0 0 C4.31392226 0.4793247 6.16569547 1.7457985 9 5 C5.26512223 4.5020163 3.18762365 4.12508244 0 2 C0 1.34 0 0.68 0 0 Z " fill="#179AD0" transform="translate(189,425)"/>
<path d="M0 0 C4.03321763 1.21934486 7.54269479 2.55954927 11 5 C11 5.66 11 6.32 11 7 C6.89188572 5.55007731 3.53144334 3.54592427 0 1 C0 0.67 0 0.34 0 0 Z " fill="#1B598F" transform="translate(136,404)"/>
<path d="M0 0 C-2.64 1.65 -5.28 3.3 -8 5 C-8.33 4.01 -8.66 3.02 -9 2 C-8.01 2 -7.02 2 -6 2 C-6 1.34 -6 0.68 -6 0 C-2.25 -1.125 -2.25 -1.125 0 0 Z " fill="#11A3E5" transform="translate(220,487)"/>
<path d="M0 0 C0.33 0.99 0.66 1.98 1 3 C-0.32 4.32 -1.64 5.64 -3 7 C-3.99 6.67 -4.98 6.34 -6 6 C-5.38125 5.7525 -4.7625 5.505 -4.125 5.25 C-1.64931313 3.79371361 -1.04874998 2.62187494 0 0 Z " fill="#131112" transform="translate(568,445)"/>
<path d="M0 0 C0.33 0 0.66 0 1 0 C1.25 2.75 1.25 2.75 1 6 C-1 8.375 -1 8.375 -3 10 C-3 8.35 -3 6.7 -3 5 C-2.34 4.67 -1.68 4.34 -1 4 C-0.34786708 1.97536745 -0.34786708 1.97536745 0 0 Z " fill="#313030" transform="translate(871,504)"/>
<path d="M0 0 C2.475 0.495 2.475 0.495 5 1 C4.67 2.65 4.34 4.3 4 6 C3.01 5.67 2.02 5.34 1 5 C0.67 3.35 0.34 1.7 0 0 Z " fill="#12130F" transform="translate(206,449)"/>
<path d="M0 0 C2.00720923 0.28674418 4.0085944 0.61866701 6 1 C4.35 2.32 2.7 3.64 1 5 C0.34 3.68 -0.32 2.36 -1 1 C-0.67 0.67 -0.34 0.34 0 0 Z " fill="#1498DB" transform="translate(198,495)"/>
<path d="M0 0 C3.77545388 1.09068668 6.47043472 1.9083091 9 5 C5.65626525 4.44271087 2.96687001 3.64826111 0 2 C0 1.34 0 0.68 0 0 Z " fill="#139ED5" transform="translate(210,437)"/>
</svg>
