<?xml version="1.0" encoding="UTF-8"?>
<svg version="1.1" xmlns="http://www.w3.org/2000/svg" width="388" height="86">
<path d="M0 0 C4.81052082 0.13722563 7.88958598 1.72257518 11.8125 4.375 C13.8930239 5.65042755 15.97667746 6.92075636 18.0625 8.1875 C22.21962639 10.74271052 26.3389735 13.35181168 30.4375 16 C34.03323779 18.30482611 37.67128244 20.42361978 41.4375 22.4375 C46.45177338 25.12756083 51.19435566 28.05031933 55.8125 31.375 C57.0809375 32.2721875 57.0809375 32.2721875 58.375 33.1875 C60.35213012 36.19617628 60.48467842 38.62124496 60.34375 42.1796875 C59.39873119 46.08483877 57.14889755 47.30643352 53.8125 49.375 C53.1525 49.375 52.4925 49.375 51.8125 49.375 C51.8125 50.035 51.8125 50.695 51.8125 51.375 C50.56514433 52.0259259 49.31448168 52.67051669 48.0625 53.3125 C47.36640625 53.67214844 46.6703125 54.03179687 45.953125 54.40234375 C43.91025567 55.33058182 42.00134624 55.90666578 39.8125 56.375 C39.8125 57.035 39.8125 57.695 39.8125 58.375 C39.255625 58.67792969 38.69875 58.98085938 38.125 59.29296875 C33.47034573 61.84831104 28.95394804 64.5046901 24.5390625 67.45703125 C22.8125 68.375 22.8125 68.375 19.8125 68.375 C19.8125 69.035 19.8125 69.695 19.8125 70.375 C17.765625 71.91796875 17.765625 71.91796875 15.0625 73.5625 C14.18078125 74.11292969 13.2990625 74.66335937 12.390625 75.23046875 C9.8125 76.375 9.8125 76.375 7.484375 76.05078125 C6.93265625 75.82777344 6.3809375 75.60476562 5.8125 75.375 C6.1219491 72.25383231 6.40284522 70.76526783 8.7109375 68.56640625 C9.93683594 67.76009766 9.93683594 67.76009766 11.1875 66.9375 C12.54294922 66.04417969 12.54294922 66.04417969 13.92578125 65.1328125 C17.60092269 62.894905 21.35706617 60.8507343 25.16015625 58.83984375 C27.64901575 57.46528953 29.96960184 55.98287129 32.3125 54.375 C36.46604005 51.52877921 40.78905361 49.12867111 45.234375 46.76953125 C46.51054688 46.07923828 46.51054688 46.07923828 47.8125 45.375 C48.72515625 44.90449219 49.6378125 44.43398438 50.578125 43.94921875 C52.97182233 42.57803479 52.97182233 42.57803479 53.625 40.1875 C53.686875 39.589375 53.74875 38.99125 53.8125 38.375 C48.00873036 34.14110248 42.33772047 30.3959354 35.8125 27.375 C35.8125 26.715 35.8125 26.055 35.8125 25.375 C35.2246875 25.25382812 34.636875 25.13265625 34.03125 25.0078125 C31.76365985 24.36107024 30.26990168 23.54634936 28.3125 22.25 C23.90610901 19.40795972 19.39483524 16.77685131 14.8515625 14.16015625 C12.86712924 12.99449301 10.90204816 11.79505465 8.9609375 10.55859375 C7.64996094 9.72521484 7.64996094 9.72521484 6.3125 8.875 C5.5390625 8.3696875 4.765625 7.864375 3.96875 7.34375 C1.86562991 6.18406355 1.86562991 6.18406355 -0.40625 6.59375 C-2.38381896 7.23474009 -2.38381896 7.23474009 -3.1875 9.375 C-3.30694476 11.1615453 -3.36472318 12.95236251 -3.39282227 14.74267578 C-3.41276749 15.86368683 -3.43271271 16.98469788 -3.45326233 18.13967896 C-3.47833107 19.96159256 -3.47833107 19.96159256 -3.50390625 21.8203125 C-3.52468735 23.06046112 -3.54546844 24.30060974 -3.56687927 25.57833862 C-3.62127705 28.87611823 -3.67150095 32.1739272 -3.71972656 35.47180176 C-3.76995234 38.83672653 -3.82563277 42.2015605 -3.88085938 45.56640625 C-3.98811557 52.16919854 -4.08987189 58.77205872 -4.1875 65.375 C-5.8375 65.045 -7.4875 64.715 -9.1875 64.375 C-9.257108 57.02954046 -9.31036584 49.68415241 -9.34293652 42.33842945 C-9.35857139 38.92724239 -9.37976914 35.51628151 -9.41381836 32.10522461 C-9.45274491 28.18085466 -9.4672273 24.25657529 -9.48046875 20.33203125 C-9.49595261 19.11103226 -9.51143646 17.89003326 -9.52738953 16.6320343 C-9.52761612 15.4912291 -9.52784271 14.35042389 -9.52807617 13.17504883 C-9.53473801 12.17355301 -9.54139984 11.17205719 -9.54826355 10.14021301 C-8.80641685 4.45403946 -5.90285382 0.10159817 0 0 Z " fill="#196AB6" transform="translate(28.1875,2.625)"/>
<path d="M0 0 C19.47826087 0 19.47826087 0 24 2 C27.19827169 5.31473536 28 8.11415575 28 12.6875 C26.93012672 16.23145525 25.84827857 17.70300115 23 20 C23.433125 20.4125 23.86625 20.825 24.3125 21.25 C27.31143511 24.36000678 29.43555396 26.67342537 29.5625 31.125 C28.99247853 35.05181455 28.5638736 37.00881414 26 40 C20 43 20 43 0 43 C0 28.81 0 14.62 0 0 Z M6 6 C6 9.63 6 13.26 6 17 C8.14576637 17.02685938 10.29162645 17.04633088 12.4375 17.0625 C14.22994141 17.07990234 14.22994141 17.07990234 16.05859375 17.09765625 C18.88873341 17.33901792 18.88873341 17.33901792 20 16 C20.32460261 11.96916989 20.32460261 11.96916989 20 8 C16.57905758 5.71937172 15.31812778 5.78074993 11.3125 5.875 C9.559375 5.91625 7.80625 5.9575 6 6 Z M6 24 C5.92741054 26.18639453 5.91626217 28.37500389 5.9375 30.5625 C5.94652344 31.76003906 5.95554687 32.95757812 5.96484375 34.19140625 C5.97644531 35.11824219 5.98804687 36.04507813 6 37 C7.74965358 37.05429959 9.49979787 37.09292823 11.25 37.125 C12.22453125 37.14820313 13.1990625 37.17140625 14.203125 37.1953125 C17.08170091 36.99429463 18.61784582 36.59161629 21 35 C23.26142258 32.25305475 23.26142258 32.25305475 22.875 29.5 C21.81205199 26.46300568 20.74099148 25.61234793 18 24 C14.84767711 22.9492257 8.58050552 21.41949448 6 24 Z " fill="#DADADA" transform="translate(112,18)"/>
<path d="M0 0 C0.495 0.33 0.99 0.66 1.5 1 C1.5 1.66 1.5 2.32 1.5 3 C2.16 3 2.82 3 3.5 3 C3.5 2.01 3.5 1.02 3.5 0 C5.48 0 7.46 0 9.5 0 C9.59927153 4.73219762 9.67165633 9.46378213 9.71972656 14.19677734 C9.73977627 15.80495774 9.76702364 17.41306583 9.80175781 19.02099609 C9.85057264 21.3397002 9.87303428 23.65743625 9.890625 25.9765625 C9.91127014 26.68930328 9.93191528 27.40204407 9.95318604 28.13638306 C9.95586034 34.1577694 7.79886349 37.57825739 3.74609375 41.84765625 C0.42860599 43.54967171 -2.79585686 43.47401602 -6.4375 43.4375 C-7.49227539 43.4674707 -7.49227539 43.4674707 -8.56835938 43.49804688 C-13.51103965 43.49341456 -16.00139505 42.45752544 -19.5 39 C-19.17 37.35 -18.84 35.7 -18.5 34 C-12.90924092 34.76237624 -12.90924092 34.76237624 -10.5625 36.125 C-7.32631139 37.4979285 -4.84961336 36.79172679 -1.5 36 C0.48029682 34.93654948 0.48029682 34.93654948 1.5 33 C2.2269226 29.89160979 2.2269226 29.89160979 2.5 27 C1.51 27.515625 0.52 28.03125 -0.5 28.5625 C-4.72473281 30.34627608 -8.14075989 30.4264993 -12.5 29 C-17.05105535 26.16632403 -19.53889344 23.21762727 -21.16796875 18.1875 C-21.99242233 12.75580584 -20.00661903 7.73591 -17.5 3 C-16.51 3 -15.52 3 -14.5 3 C-14.5 2.34 -14.5 1.68 -14.5 1 C-10.13338636 -1.91107576 -4.77017978 -1.90807191 0 0 Z M-13.5 9 C-15.06935594 12.13871188 -14.85201103 14.53855822 -14.5 18 C-12.64658666 21.10350449 -12.64658666 21.10350449 -9.5 23 C-5.63311527 23.65451162 -2.22813615 23.24271205 1.5 22 C3.1381944 18.13226297 3.74203223 14.23705363 2.9375 10.125 C1.11432367 7.42986977 -0.54514834 6.33671861 -3.5 5 C-8.24547942 5 -9.78673738 6.1944238 -13.5 9 Z " fill="#D9D9D9" transform="translate(214.5,32)"/>
<path d="M0 0 C7.54526494 -0.85783575 15.85632777 -0.71459545 23 2 C23.33 2.99 23.66 3.98 24 5 C24.66 5 25.32 5 26 5 C28.05026066 8.85931418 28.27802978 11.85141924 27.609375 16.0703125 C26.3953455 19.91473924 23.5305556 22.01387022 20.25390625 24.125 C17.17973012 25.31844099 14.53496202 25.19069924 11.25 25.125 C9.49429687 25.09792969 9.49429687 25.09792969 7.703125 25.0703125 C6.81109375 25.04710938 5.9190625 25.02390625 5 25 C5.01160156 26.21558594 5.02320313 27.43117188 5.03515625 28.68359375 C5.04453278 30.26822764 5.05363313 31.85286318 5.0625 33.4375 C5.07087891 34.23994141 5.07925781 35.04238281 5.08789062 35.86914062 C5.0965143 37.91295221 5.0522815 39.95683902 5 42 C4 43 4 43 0.9375 43.0625 C-0.031875 43.041875 -1.00125 43.02125 -2 43 C-2.04940499 37.35833009 -2.08572193 31.71678587 -2.10986328 26.07495117 C-2.11992639 24.15533251 -2.13357816 22.23572919 -2.15087891 20.31616211 C-2.17511364 17.55839248 -2.18647992 14.80082536 -2.1953125 12.04296875 C-2.20563507 11.18350143 -2.21595764 10.32403412 -2.22659302 9.43852234 C-2.22674408 8.63791885 -2.22689514 7.83731537 -2.22705078 7.01245117 C-2.231492 6.3085173 -2.23593323 5.60458344 -2.24050903 4.87931824 C-2 3 -2 3 0 0 Z M5 6 C5 10.29 5 14.58 5 19 C10.54518774 19.16803599 14.78757146 19.13843222 20 17 C20.0825 15.741875 20.165 14.48375 20.25 13.1875 C20.29640625 12.47980469 20.3428125 11.77210937 20.390625 11.04296875 C20.16287274 8.85734207 20.16287274 8.85734207 18.34375 7.25 C15.44307483 5.70297324 13.51769945 5.69579645 10.25 5.8125 C8.5175 5.874375 6.785 5.93625 5 6 Z " fill="#D9D9D9" transform="translate(284,18)"/>
<path d="M0 0 C4.73003878 2.67350018 6.33062512 5.90401353 8 11 C8 12.98 8 14.96 8 17 C0.41 17 -7.18 17 -15 17 C-14.34 18.65 -13.68 20.3 -13 22 C-11.41773035 22.19627391 -9.83410729 22.38165538 -8.25 22.5625 C-7.36828125 22.66691406 -6.4865625 22.77132812 -5.578125 22.87890625 C-3.11567549 22.99456676 -1.33461936 22.73638695 1 22 C1 21.34 1 20.68 1 20 C2.9375 20.8125 2.9375 20.8125 5 22 C5.33 22.99 5.66 23.98 6 25 C4.64551201 27.70897599 2.75884525 28.29511543 0.03125 29.390625 C-4.61804103 30.78541231 -8.66332348 30.48840104 -13.25 28.8125 C-16.8177811 26.46100791 -19.09221079 23.81557843 -21 20 C-21.55392533 14.07725993 -21.56489548 8.99085368 -18 4 C-11.85661077 -0.7355292 -7.42978106 -1.66123626 0 0 Z M-9.1875 4 C-11.83462934 5.46048515 -13.25771721 7.57324898 -15 10 C-13.17398916 12.25207746 -13.17398916 12.25207746 -10.50390625 12.23046875 C-9.53324219 12.21628906 -8.56257812 12.20210937 -7.5625 12.1875 C-6.59441406 12.18105469 -5.62632812 12.17460938 -4.62890625 12.16796875 C-1.89054038 12.105232 -1.89054038 12.105232 1 11 C1.04289755 9.06890419 1.04289755 9.06890419 0 7 C-3.09785059 5.30494968 -5.608201 4 -9.1875 4 Z " fill="#D9D9D9" transform="translate(251,32)"/>
<path d="M0 0 C3.52930696 2.72050745 5.22394436 4.66283829 6 9 C6.07866959 10.58692639 6.10784114 12.17678249 6.09765625 13.765625 C6.09443359 14.65507813 6.09121094 15.54453125 6.08789062 16.4609375 C6.07951172 17.38132812 6.07113281 18.30171875 6.0625 19.25 C6.05798828 20.18585937 6.05347656 21.12171875 6.04882812 22.0859375 C6.03706918 24.39069041 6.02063426 26.69531227 6 29 C4.02 29 2.04 29 0 29 C-0.33 28.34 -0.66 27.68 -1 27 C-1.495 27.495 -1.99 27.99 -2.5 28.5 C-5.9543309 30.57259854 -9.11520736 30.57152019 -13 30 C-15.87898475 28.7482675 -17.44740029 27.70330872 -19.375 25.25 C-20.32835544 21.81792041 -19.91654656 19.42177384 -19 16 C-14.7960711 11.90386415 -12.12578246 10.87063044 -6.375 10.9375 C-4.87066406 10.95103516 -4.87066406 10.95103516 -3.3359375 10.96484375 C-2.56507813 10.97644531 -1.79421875 10.98804688 -1 11 C-1.8347846 8.51425868 -1.8347846 8.51425868 -3 6 C-5.30371421 4.82221688 -5.30371421 4.82221688 -8 5 C-9.67739862 5.98189187 -11.34467377 6.98133771 -13 8 C-15.3125 7.6875 -15.3125 7.6875 -17 7 C-16.9375 4.6875 -16.9375 4.6875 -16 2 C-10.765543 -1.27153562 -5.93677619 -1.83439714 0 0 Z M-13 18 C-13.25030977 20.41619823 -13.25030977 20.41619823 -13 23 C-10.18138229 25.32821558 -10.18138229 25.32821558 -7 24.75 C-3.84584582 24.14014017 -3.84584582 24.14014017 -1 22 C-0.74984127 18.41642759 -0.74984127 18.41642759 -1 15 C-5.87664009 14.65166856 -8.77050005 15.58314288 -13 18 Z " fill="#D9D9D9" transform="translate(349,32)"/>
<path d="M0 0 C1.98 0 3.96 0 6 0 C8.18126045 4.2090011 10.01338914 8.44086854 11.6875 12.875 C12.34298828 14.60363281 12.34298828 14.60363281 13.01171875 16.3671875 C13.33785156 17.23601563 13.66398437 18.10484375 14 19 C18.0183841 9.68061541 18.0183841 9.68061541 21 0 C23.31 0 25.62 0 28 0 C27.35748983 3.93447236 26.14662876 7.28507256 24.5625 10.9375 C22.84210011 14.91752959 21.35671996 18.88305668 20 23 C19.06236738 25.53160809 18.10821128 28.04900861 17.125 30.5625 C16.88136719 31.20896484 16.63773437 31.85542969 16.38671875 32.52148438 C14.79202802 36.582575 13.15986973 39.95587641 10 43 C7.421875 43.48828125 7.421875 43.48828125 4.75 43.3125 C3.85796875 43.26738281 2.9659375 43.22226563 2.046875 43.17578125 C1.03367187 43.08876953 1.03367187 43.08876953 0 43 C0 41.35 0 39.7 0 38 C1.11375 37.773125 2.2275 37.54625 3.375 37.3125 C7.03707094 36.37735586 7.03707094 36.37735586 8.5 33.875 C9.82195284 26.27377119 7.01738549 20.02681194 3.9375 13.25 C3.19002347 11.59149651 2.44886974 9.93012518 1.71484375 8.265625 C1.38605225 7.54149414 1.05726074 6.81736328 0.71850586 6.07128906 C0 4 0 4 0 0 Z " fill="#D9D9D9" transform="translate(359,32)"/>
<path d="M0 0 C2.375 1 2.375 1 4 2 C4 2.66 4 3.32 4 4 C4.66 4 5.32 4 6 4 C7.88414642 7.19457351 8.23819737 9.51502629 8.1953125 13.203125 C8.18886719 14.1828125 8.18242187 15.1625 8.17578125 16.171875 C8.15902344 17.18765625 8.14226562 18.2034375 8.125 19.25 C8.11597656 20.28125 8.10695312 21.3125 8.09765625 22.375 C8.07412011 24.91690287 8.04124023 27.4583328 8 30 C5.69 30 3.38 30 1 30 C0.98541748 29.37432129 0.97083496 28.74864258 0.95581055 28.10400391 C0.88147196 25.27703598 0.78476766 22.45126792 0.6875 19.625 C0.66494141 18.64015625 0.64238281 17.6553125 0.61914062 16.640625 C0.5659668 15.22910156 0.5659668 15.22910156 0.51171875 13.7890625 C0.48553467 12.91975098 0.45935059 12.05043945 0.43237305 11.15478516 C0.18654782 8.61399973 0.18654782 8.61399973 -3 7 C-5.84120234 7.35515029 -8.28047752 8.09349251 -11 9 C-11.33 15.93 -11.66 22.86 -12 30 C-13.98 30 -15.96 30 -18 30 C-18 20.43 -18 10.86 -18 1 C-16.02 1 -14.04 1 -12 1 C-11.67 1.66 -11.34 2.32 -11 3 C-10.29875 2.505 -9.5975 2.01 -8.875 1.5 C-5.55518269 -0.23207859 -3.69542183 -0.39312998 0 0 Z " fill="#D8D8D8" transform="translate(180,31)"/>
<path d="M0 0 C1.98 0 3.96 0 6 0 C6 15.18 6 30.36 6 46 C4.02 46 2.04 46 0 46 C-1.54501451 44.45498549 -1.12719131 43.0133978 -1.12939453 40.86328125 C-1.13254669 39.98567139 -1.13569885 39.10806152 -1.13894653 38.20385742 C-1.1369223 37.24970947 -1.13489807 36.29556152 -1.1328125 35.3125 C-1.13376923 34.33966064 -1.13472595 33.36682129 -1.13571167 32.36450195 C-1.13639358 30.303222 -1.13453853 28.24193992 -1.13037109 26.18066406 C-1.125023 23.01362312 -1.13031572 19.846724 -1.13671875 16.6796875 C-1.13605797 14.68229135 -1.13477681 12.68489529 -1.1328125 10.6875 C-1.13483673 9.73335205 -1.13686096 8.7792041 -1.13894653 7.79614258 C-1.13579437 6.91853271 -1.13264221 6.04092285 -1.12939453 5.13671875 C-1.12859894 4.36030029 -1.12780334 3.58388184 -1.12698364 2.78393555 C-1 1 -1 1 0 0 Z " fill="#DBDBDB" transform="translate(317,15)"/>
<path d="M0 0 C1.98 0 3.96 0 6 0 C6 9.57 6 19.14 6 29 C4.02 29 2.04 29 0 29 C0 19.43 0 9.86 0 0 Z " fill="#DBDBDB" transform="translate(148,32)"/>
<path d="M0 0 C4.55555556 0.55555556 4.55555556 0.55555556 6 2 C6.1875 4.4375 6.1875 4.4375 6 7 C5.34 7.66 4.68 8.32 4 9 C-0.55555556 8.44444444 -0.55555556 8.44444444 -2 7 C-2.1875 4.5625 -2.1875 4.5625 -2 2 C-1.34 1.34 -0.68 0.68 0 0 Z " fill="#DADADA" transform="translate(149,18)"/>
<path d="M0 0 C1.98 0.495 1.98 0.495 4 1 C3.67 2.65 3.34 4.3 3 6 C1.68 5.67 0.36 5.34 -1 5 C-0.67 3.35 -0.34 1.7 0 0 Z " fill="#264392" transform="translate(25,76)"/>
</svg>
